<svg width="65" height="31" viewBox="0 0 65 31" fill="none" xmlns="http://www.w3.org/2000/svg">
<rect y="0.5" width="65" height="30" rx="5" fill="#3BC500"/>
<path d="M6.11861 20.5V10.3182H12.5021V11.6406H7.65483V14.7429H12.169V16.0604H7.65483V19.1776H12.5618V20.5H6.11861ZM15.9213 15.9659V20.5H14.4348V12.8636H15.8617V14.1065H15.9561C16.1318 13.7022 16.4069 13.3774 16.7814 13.1321C17.1593 12.8868 17.6349 12.7642 18.2083 12.7642C18.7286 12.7642 19.1844 12.8736 19.5755 13.0923C19.9666 13.3078 20.2698 13.6293 20.4853 14.0568C20.7007 14.4844 20.8084 15.013 20.8084 15.6428V20.5H19.3219V15.8217C19.3219 15.2682 19.1777 14.8357 18.8894 14.5241C18.601 14.2093 18.205 14.0518 17.7012 14.0518C17.3565 14.0518 17.0499 14.1264 16.7814 14.2756C16.5163 14.4247 16.3058 14.6435 16.15 14.9318C15.9976 15.2169 15.9213 15.5616 15.9213 15.9659ZM25.0243 20.669C24.5404 20.669 24.1029 20.5795 23.7118 20.4006C23.3207 20.2183 23.0108 19.9548 22.7821 19.6101C22.5568 19.2654 22.4441 18.8428 22.4441 18.3423C22.4441 17.9115 22.5269 17.5568 22.6926 17.2784C22.8584 17 23.0821 16.7796 23.3638 16.6172C23.6455 16.4548 23.9604 16.3321 24.3084 16.2493C24.6564 16.1664 25.0111 16.1035 25.3723 16.0604C25.8297 16.0073 26.2009 15.9643 26.486 15.9311C26.771 15.8946 26.9782 15.8366 27.1074 15.7571C27.2367 15.6776 27.3013 15.5483 27.3013 15.3693V15.3345C27.3013 14.9003 27.1787 14.5639 26.9334 14.3253C26.6915 14.0866 26.3302 13.9673 25.8496 13.9673C25.3491 13.9673 24.9547 14.0784 24.6664 14.3004C24.3813 14.5192 24.1841 14.7628 24.0748 15.0312L22.6777 14.7131C22.8435 14.2491 23.0854 13.8745 23.4036 13.5895C23.7251 13.3011 24.0946 13.0923 24.5123 12.9631C24.9299 12.8305 25.369 12.7642 25.8297 12.7642C26.1346 12.7642 26.4578 12.8007 26.7992 12.8736C27.1439 12.9432 27.4654 13.0724 27.7637 13.2614C28.0653 13.4503 28.3122 13.7204 28.5044 14.0717C28.6967 14.4197 28.7928 14.8722 28.7928 15.429V20.5H27.3411V19.456H27.2814C27.1853 19.6482 27.0411 19.8371 26.8489 20.0227C26.6567 20.2083 26.4097 20.3625 26.1081 20.4851C25.8065 20.6077 25.4453 20.669 25.0243 20.669ZM25.3475 19.4759C25.7585 19.4759 26.1098 19.3946 26.4015 19.2322C26.6964 19.0698 26.9202 18.8577 27.0726 18.5959C27.2284 18.3307 27.3063 18.0473 27.3063 17.7457V16.7614C27.2533 16.8144 27.1505 16.8641 26.998 16.9105C26.8489 16.9536 26.6782 16.9917 26.486 17.0249C26.2937 17.0547 26.1065 17.0829 25.9242 17.1094C25.7419 17.1326 25.5894 17.1525 25.4668 17.169C25.1784 17.2055 24.915 17.2668 24.6763 17.353C24.441 17.4392 24.2521 17.5634 24.1096 17.7259C23.9703 17.8849 23.9007 18.0971 23.9007 18.3622C23.9007 18.7301 24.0366 19.0085 24.3084 19.1974C24.5802 19.383 24.9266 19.4759 25.3475 19.4759ZM30.892 20.5V10.3182H32.3786V14.1016H32.468C32.5542 13.9425 32.6785 13.7585 32.8409 13.5497C33.0033 13.3409 33.2287 13.1586 33.517 13.0028C33.8054 12.8438 34.1866 12.7642 34.6605 12.7642C35.277 12.7642 35.8272 12.92 36.3111 13.2315C36.795 13.5431 37.1745 13.9922 37.4496 14.5788C37.728 15.1655 37.8672 15.8714 37.8672 16.6967C37.8672 17.522 37.7296 18.2296 37.4545 18.8196C37.1795 19.4062 36.8016 19.8587 36.321 20.1768C35.8404 20.4917 35.2919 20.6491 34.6754 20.6491C34.2114 20.6491 33.8319 20.5713 33.5369 20.4155C33.2453 20.2597 33.0166 20.0774 32.8509 19.8686C32.6851 19.6598 32.5575 19.4742 32.468 19.3118H32.3438V20.5H30.892ZM32.3487 16.6818C32.3487 17.2187 32.4266 17.6894 32.5824 18.0938C32.7382 18.4981 32.9635 18.8146 33.2585 19.0433C33.5535 19.2687 33.9148 19.3814 34.3423 19.3814C34.7865 19.3814 35.1577 19.2637 35.456 19.0284C35.7543 18.7898 35.9796 18.4666 36.1321 18.0589C36.2879 17.6513 36.3658 17.1922 36.3658 16.6818C36.3658 16.178 36.2895 15.7256 36.1371 15.3246C35.9879 14.9235 35.7625 14.607 35.4609 14.375C35.1626 14.143 34.7898 14.027 34.3423 14.027C33.9115 14.027 33.5469 14.138 33.2486 14.3601C32.9536 14.5821 32.7299 14.892 32.5774 15.2898C32.425 15.6875 32.3487 16.1515 32.3487 16.6818ZM41.0229 10.3182V20.5H39.5364V10.3182H41.0229ZM46.3139 20.6541C45.5616 20.6541 44.9136 20.4934 44.37 20.1719C43.8298 19.8471 43.4122 19.3913 43.1172 18.8047C42.8255 18.2147 42.6797 17.5237 42.6797 16.7315C42.6797 15.9493 42.8255 15.2599 43.1172 14.6634C43.4122 14.0668 43.8232 13.6011 44.3501 13.2663C44.8804 12.9316 45.5002 12.7642 46.2095 12.7642C46.6404 12.7642 47.058 12.8355 47.4624 12.978C47.8667 13.1205 48.2296 13.3442 48.5511 13.6491C48.8726 13.9541 49.1262 14.3501 49.3118 14.8374C49.4974 15.3213 49.5902 15.9096 49.5902 16.6023V17.1293H43.5199V16.0156H48.1335C48.1335 15.6245 48.054 15.2782 47.8949 14.9766C47.7358 14.6716 47.5121 14.4313 47.2237 14.2557C46.9387 14.08 46.6039 13.9922 46.2195 13.9922C45.8018 13.9922 45.4373 14.0949 45.1257 14.3004C44.8175 14.5026 44.5788 14.7678 44.4098 15.0959C44.2441 15.4207 44.1612 15.7737 44.1612 16.1548V17.0249C44.1612 17.5353 44.2507 17.9695 44.4297 18.3274C44.612 18.6854 44.8655 18.9588 45.1903 19.1477C45.5152 19.3333 45.8946 19.4261 46.3288 19.4261C46.6106 19.4261 46.8674 19.3864 47.0994 19.3068C47.3314 19.224 47.532 19.1013 47.701 18.9389C47.87 18.7765 47.9993 18.576 48.0888 18.3374L49.4957 18.5909C49.383 19.0052 49.1809 19.3681 48.8892 19.6797C48.6009 19.9879 48.2379 20.2282 47.8004 20.4006C47.3662 20.5696 46.8707 20.6541 46.3139 20.6541ZM54.0982 20.6491C53.4817 20.6491 52.9315 20.4917 52.4476 20.1768C51.967 19.8587 51.5892 19.4062 51.3141 18.8196C51.0423 18.2296 50.9064 17.522 50.9064 16.6967C50.9064 15.8714 51.044 15.1655 51.3191 14.5788C51.5975 13.9922 51.9786 13.5431 52.4625 13.2315C52.9464 12.92 53.495 12.7642 54.1081 12.7642C54.5821 12.7642 54.9632 12.8438 55.2516 13.0028C55.5433 13.1586 55.7686 13.3409 55.9277 13.5497C56.0901 13.7585 56.2161 13.9425 56.3056 14.1016H56.3951V10.3182H57.8816V20.5H56.4299V19.3118H56.3056C56.2161 19.4742 56.0868 19.6598 55.9178 19.8686C55.7521 20.0774 55.5234 20.2597 55.2317 20.4155C54.94 20.5713 54.5622 20.6491 54.0982 20.6491ZM54.4263 19.3814C54.8539 19.3814 55.2151 19.2687 55.5101 19.0433C55.8084 18.8146 56.0338 18.4981 56.1863 18.0938C56.342 17.6894 56.4199 17.2187 56.4199 16.6818C56.4199 16.1515 56.3437 15.6875 56.1912 15.2898C56.0388 14.892 55.815 14.5821 55.5201 14.3601C55.2251 14.138 54.8605 14.027 54.4263 14.027C53.9789 14.027 53.606 14.143 53.3077 14.375C53.0094 14.607 52.784 14.9235 52.6316 15.3246C52.4824 15.7256 52.4078 16.178 52.4078 16.6818C52.4078 17.1922 52.4841 17.6513 52.6365 18.0589C52.789 18.4666 53.0144 18.7898 53.3127 19.0284C53.6143 19.2637 53.9855 19.3814 54.4263 19.3814Z" fill="white"/>
</svg>
